# xmcd CD database file
#
# Track frame offsets:
#	150
#	19275
#	37405
#
# Disc length: 738 seconds
#
# Revision: 1
# Processed by: cddbd v1.5PL3 Copyright (c) Steve Scherf et al.
# Submitted via: CDex 1.51
#
DISCID=2502e003
DTITLE=篠原ともえ - an Audio(Single)
DYEAR=1900
DGENRE=J-POP
TTITLE0=an Audio
TTITLE1=Loop People
TTITLE2=an Audio(RRRRRainbow Mix)
EXTD=
EXTT0=
EXTT1=
EXTT2=
PLAYORDER=
